<svg xmlns="http://www.w3.org/2000/svg" viewBox="0 0 171.19 168.74"><defs><style>.cls-1{fill:#b0d8a4;stroke:#000;stroke-miterlimit:10;stroke-width:3px;}</style></defs><g id="Camada_2" data-name="Camada 2"><g id="Camada_1-2" data-name="Camada 1"><path class="cls-1" d="M90,7.13V139.49c-4.38-2.66-7.69-5.58-11-7.73V6.89c1.16-.1,2.33-.16,3.5-.18A51.91,51.91,0,0,1,90,7.13Z"/><path class="cls-1" d="M90,2.21V139.49c-4.38-2.66-7.69-5.58-11-7.73V2.21Z"/><path class="cls-1" d="M84.5,79.71c-.65-.81-8.47-10.07-21-9-13.65,1.16-19.75,13.46-20,14a23.94,23.94,0,0,0-8-9,24.32,24.32,0,0,0-14-4c-12.29.44-19.3,10.91-20,12a81.77,81.77,0,0,1,16-49c16.57-22.14,39.23-28.28,46-30,4.29-1.1,45.58-10.86,78,18,26.21,23.31,27.81,55.11,28,61a23.9,23.9,0,0,0-42,1c-.44-.83-7-12.83-21-14C93.56,69.61,85.34,78.74,84.5,79.71Z"/><path class="cls-1" d="M43.5,86.71a87.37,87.37,0,0,1,40-84q.5,39.49,1,79c-.73-1-7.5-10-19-10C56.12,71.67,47.41,77.59,43.5,86.71Z"/><path class="cls-1" d="M83.5,2.71c4.4-.33,40.56-2.41,66,26,20,22.35,20.14,48.78,20,55a23.94,23.94,0,0,0-42,3,79.69,79.69,0,0,0-5-43C111.51,17.34,89.56,5.67,83.5,2.71Z"/><path class="cls-1" d="M103.51,131.35c-1.42,2.7-2.85,5.38-4.28,8.08L85.39,165.57Q77.28,150.75,69.13,136q-5.77-10.51-11.53-21a23.1,23.1,0,0,1,7-2.06c.38-.05.74-.09,1.11-.11h.22a16.89,16.89,0,0,1,2.36,0c.38,0,.76.06,1.11.11s.74.1,1.09.17.71.15,1.06.23.6.16.89.26l.54.18c.38.13.76.27,1.13.43l.73.32c.53.23,1,.5,1.56.79.22.12.45.24.67.38a3.07,3.07,0,0,1,.36.2l.87.53.39.26c4.06,2.63,8.12,6.21,13.48,9.47.73.44,1.46.87,2.23,1.29.48.27,1,.53,1.49.78s.88.46,1.33.67c.85.4,1.72.79,2.63,1.16l.84.34C101.57,130.68,102.51,131,103.51,131.35Z"/></g></g></svg>