<svg xmlns="http://www.w3.org/2000/svg" viewBox="0 0 169.07 138.88"><defs><style>.cls-1,.cls-2{fill:#b0c5eb;stroke:#000;stroke-miterlimit:10;}.cls-1{stroke-width:2px;}</style></defs><g id="Camada_2" data-name="Camada 2"><g id="Camada_1-2" data-name="Camada 1"><path class="cls-1" d="M89,5.38V137.86c-3.71.08-7.43-.08-11.15,0C77.9,93.58,78,49.42,78,5.14,79.16,5,80.33,5,81.5,5A51.91,51.91,0,0,1,89,5.38Z"/><path class="cls-2" d="M83.5,78c-.65-.8-8.47-10.06-21-9-13.65,1.16-19.75,13.47-20,14a24.09,24.09,0,0,0-8-9,24.4,24.4,0,0,0-14-4C8.21,70.4,1.2,80.88.5,82a81.77,81.77,0,0,1,16-49C33.07,10.82,55.73,4.68,62.5,3c4.29-1.09,45.58-10.85,78,18,26.21,23.32,27.81,55.12,28,61a23.9,23.9,0,0,0-42,1c-.44-.83-7-12.82-21-14C92.56,67.87,84.34,77,83.5,78Z"/><path class="cls-2" d="M42.5,85a87.37,87.37,0,0,1,40-84q.5,39.49,1,79c-.73-1-7.5-10-19-10C55.12,69.93,46.41,75.85,42.5,85Z"/><path class="cls-2" d="M82.5,1c4.4-.33,40.56-2.4,66,26,20,22.36,20.14,48.78,20,55a23.94,23.94,0,0,0-42,3,79.7,79.7,0,0,0-5-43C110.51,15.59,88.56,3.93,82.5,1Z"/></g></g></svg>