<svg xmlns="http://www.w3.org/2000/svg" viewBox="0 0 730.72 258.79"><defs><style>.cls-1{fill:#b0c5eb;}.cls-1,.cls-2{stroke:#000;stroke-miterlimit:10;stroke-width:3px;}.cls-2{fill:#fee191;}</style></defs><g id="Camada_2" data-name="Camada 2"><g id="Camada_1-2" data-name="Camada 1"><path class="cls-1" d="M90,124.78V257.26c-3.71.08-7.43-.08-11.15,0,.05-44.28.1-88.44.15-132.72,1.16-.1,2.33-.16,3.5-.18A51.91,51.91,0,0,1,90,124.78Z"/><path class="cls-1" d="M84.5,197.36c-.65-.8-8.47-10.06-21-9-13.65,1.16-19.75,13.47-20,14a24.09,24.09,0,0,0-8-9,24.48,24.48,0,0,0-14-4c-12.29.45-19.3,10.92-20,12a81.79,81.79,0,0,1,16-49c16.57-22.14,39.23-28.27,46-30,4.29-1.09,45.58-10.85,78,18,26.21,23.32,27.81,55.12,28,61a23.9,23.9,0,0,0-42,1c-.44-.82-7-12.82-21-14C93.56,187.27,85.34,196.4,84.5,197.36Z"/><path class="cls-1" d="M43.5,204.36a87.37,87.37,0,0,1,40-84q.5,39.51,1,79c-.73-1-7.5-10-19-10C56.12,189.33,47.41,195.25,43.5,204.36Z"/><path class="cls-1" d="M83.5,120.36c4.4-.32,40.56-2.4,66,26,20,22.36,20.14,48.79,20,55a23.94,23.94,0,0,0-42,3,79.7,79.7,0,0,0-5-43C111.51,135,89.56,123.33,83.5,120.36Z"/><path class="cls-2" d="M729.22,1.76V66.6c-1.27-1.29-1.93-3.67-3.88-3.86s-3.12,1.87-4.65,3.08V1.68c.87.1,1.81.18,2.82.2.65,0,1.26,0,1.85,0A29.59,29.59,0,0,0,729.22,1.76Z"/></g></g></svg>