<svg xmlns="http://www.w3.org/2000/svg" viewBox="0 0 171.19 141.13"><defs><style>.cls-1{fill:#b0c5eb;stroke:#000;stroke-miterlimit:10;stroke-width:3px;}</style></defs><g id="Camada_2" data-name="Camada 2"><g id="Camada_1-2" data-name="Camada 1"><path class="cls-1" d="M90,7.13V139.6c-3.71.08-7.43-.08-11.15,0C78.9,95.32,79,51.16,79,6.89c1.16-.1,2.33-.16,3.5-.18A51.91,51.91,0,0,1,90,7.13Z"/><path class="cls-1" d="M84.5,79.71c-.65-.81-8.47-10.07-21-9-13.65,1.16-19.75,13.46-20,14a23.94,23.94,0,0,0-8-9,24.32,24.32,0,0,0-14-4c-12.29.44-19.3,10.91-20,12a81.77,81.77,0,0,1,16-49c16.57-22.14,39.23-28.28,46-30,4.29-1.1,45.58-10.86,78,18,26.21,23.31,27.81,55.11,28,61a23.9,23.9,0,0,0-42,1c-.44-.83-7-12.83-21-14C93.56,69.61,85.34,78.74,84.5,79.71Z"/><path class="cls-1" d="M43.5,86.71a87.37,87.37,0,0,1,40-84q.5,39.49,1,79c-.73-1-7.5-10-19-10C56.12,71.67,47.41,77.59,43.5,86.71Z"/><path class="cls-1" d="M83.5,2.71c4.4-.33,40.56-2.41,66,26,20,22.35,20.14,48.78,20,55a23.94,23.94,0,0,0-42,3,79.69,79.69,0,0,0-5-43C111.51,17.34,89.56,5.67,83.5,2.71Z"/></g></g></svg>