<svg xmlns="http://www.w3.org/2000/svg" viewBox="0 0 169.07 164.92"><defs><style>.cls-1,.cls-2{fill:#b0d8a4;stroke:#000;stroke-miterlimit:10;}.cls-1{stroke-width:2px;}</style></defs><g id="Camada_2" data-name="Camada 2"><g id="Camada_1-2" data-name="Camada 1"><path class="cls-1" d="M89,5.42V137.78c-4.38-2.66-7.69-5.58-11-7.73V5.18c1.16-.1,2.33-.16,3.5-.18A51.91,51.91,0,0,1,89,5.42Z"/><path class="cls-2" d="M89,.5V137.78c-4.38-2.66-7.69-5.58-11-7.73V.5Z"/><path class="cls-2" d="M83.5,78c-.65-.8-8.47-10.06-21-9-13.65,1.16-19.75,13.47-20,14a24.09,24.09,0,0,0-8-9,24.4,24.4,0,0,0-14-4C8.21,70.44,1.2,80.92.5,82a81.77,81.77,0,0,1,16-49C33.07,10.86,55.73,4.72,62.5,3c4.29-1.09,45.58-10.85,78,18,26.21,23.32,27.81,55.12,28,61a23.9,23.9,0,0,0-42,1c-.44-.83-7-12.82-21-14C92.56,67.91,84.34,77,83.5,78Z"/><path class="cls-2" d="M42.5,85a87.37,87.37,0,0,1,40-84q.5,39.49,1,79c-.73-1-7.5-10-19-10C55.12,70,46.41,75.88,42.5,85Z"/><path class="cls-2" d="M82.5,1c4.4-.33,40.56-2.4,66,26,20,22.36,20.14,48.78,20,55a23.94,23.94,0,0,0-42,3,79.7,79.7,0,0,0-5-43C110.51,15.63,88.56,4,82.5,1Z"/><path class="cls-2" d="M102.51,129.65q-2.13,4-4.28,8.07L84.39,163.87q-8.11-14.82-16.26-29.63-5.77-10.52-11.53-21a23.39,23.39,0,0,1,7-2.06l1.11-.11h.22a16.89,16.89,0,0,1,2.36,0c.38,0,.76.06,1.11.11s.74.1,1.09.17.71.15,1.06.24.6.16.89.25l.54.19a11.91,11.91,0,0,1,1.13.43,7.71,7.71,0,0,1,.73.32c.53.23,1,.5,1.56.78.22.12.45.24.67.38a2.12,2.12,0,0,1,.36.21c.29.17.59.34.87.52l.39.26c4.06,2.64,8.12,6.22,13.48,9.48.73.44,1.46.87,2.23,1.28.48.27,1,.53,1.49.79s.88.45,1.33.66c.85.4,1.72.8,2.63,1.16.28.13.56.24.84.35C100.57,129,101.51,129.32,102.51,129.65Z"/></g></g></svg>