<svg xmlns="http://www.w3.org/2000/svg" viewBox="0 0 88.02 129.71"><defs><style>.cls-1{fill:#4e5052;}.cls-1,.cls-2{stroke:#000;stroke-width:3px;}.cls-1,.cls-2,.cls-3,.cls-4{stroke-miterlimit:10;}.cls-2{fill:#4652b2;}.cls-3,.cls-4{fill:none;stroke:#fff;}.cls-4{stroke-width:2px;}.cls-5{fill:#fff;}</style></defs><g id="Camada_2" data-name="Camada 2"><g id="Camada_1-2" data-name="Camada 1"><rect class="cls-1" x="38.51" y="5.71" width="11" height="122.5"/><path class="cls-2" d="M86.52,7.68V80.85c0,3.41-4.13,6.18-9.23,6.18H10.72C5.61,87,1.5,84.26,1.5,80.85V7.68c0-3.41,4.11-6.18,9.22-6.18H77.3C82.39,1.5,86.52,4.27,86.52,7.68Z"/><path class="cls-3" d="M85,9V79.54c0,3.29-4,6-8.9,6H11.9C7,85.5,3,82.83,3,79.54V9C3,5.7,7,3,11.9,3H76.11C81,3,85,5.7,85,9Z"/><path class="cls-4" d="M23.59,51.47q4.8-9.09,9.61-18.19l22.37-.22L41.78,52.85Z"/><path class="cls-4" d="M31.65,28.31Q36.81,40.49,42,52.67"/><path class="cls-4" d="M49.67,26.07a5.74,5.74,0,0,1,5.84,1.72l7.55,23.34"/><circle class="cls-4" cx="24.45" cy="51.99" r="10.98"/><circle class="cls-4" cx="63.57" cy="51.99" r="10.98"/><path class="cls-5" d="M27,25.56a2.41,2.41,0,0,0-1.49,1.49,2.34,2.34,0,0,0,1.12,2.6c1.14-.13,8.6-1,8.92-2.23a1.57,1.57,0,0,0,0-.74,1.94,1.94,0,0,0-1.12-1.12Z"/><circle class="cls-5" cx="23.38" cy="51.64" r="1.63"/><circle class="cls-5" cx="63.08" cy="51.64" r="1.63"/></g></g></svg>