<svg xmlns="http://www.w3.org/2000/svg" viewBox="0 0 86.02 127.71"><defs><style>.cls-1{fill:#4e5052;}.cls-1,.cls-2{stroke:#000;}.cls-1,.cls-2,.cls-3,.cls-4{stroke-miterlimit:10;}.cls-2{fill:#4652b2;}.cls-3,.cls-4{fill:none;stroke:#fff;}.cls-3{stroke-width:2px;}.cls-4{stroke-width:3px;}.cls-5{fill:#fff;}</style></defs><g id="Camada_2" data-name="Camada 2"><g id="Camada_1-2" data-name="Camada 1"><rect class="cls-1" x="37.51" y="4.71" width="11" height="122.5"/><path class="cls-2" d="M85.52,6.68V79.85c0,3.41-4.13,6.18-9.23,6.18H9.72C4.61,86,.5,83.26.5,79.85V6.68C.5,3.27,4.61.5,9.72.5H76.3C81.39.5,85.52,3.27,85.52,6.68Z"/><path class="cls-3" d="M84,8V78.54c0,3.29-4,6-8.9,6H10.9C6,84.5,2,81.83,2,78.54V8C2,4.7,6,2,10.9,2H75.11C80,2,84,4.7,84,8Z"/><path class="cls-4" d="M22.59,50.47q4.8-9.09,9.61-18.19l22.37-.22L40.78,51.85Z"/><path class="cls-4" d="M30.65,27.31Q35.81,39.49,41,51.67"/><path class="cls-4" d="M48.67,25.07a5.74,5.74,0,0,1,5.84,1.72l7.55,23.34"/><circle class="cls-4" cx="23.45" cy="50.99" r="10.98"/><circle class="cls-4" cx="62.57" cy="50.99" r="10.98"/><path class="cls-5" d="M26,24.56a2.41,2.41,0,0,0-1.49,1.49,2.34,2.34,0,0,0,1.12,2.6c1.14-.13,8.6-1,8.92-2.23a1.57,1.57,0,0,0,0-.74,1.94,1.94,0,0,0-1.12-1.12Z"/><circle class="cls-5" cx="22.38" cy="50.64" r="1.63"/><circle class="cls-5" cx="62.08" cy="50.64" r="1.63"/></g></g></svg>