<svg xmlns="http://www.w3.org/2000/svg" viewBox="0 0 282 56"><defs><style>.cls-1{fill:#b0c5eb;}.cls-2{fill:#fff;}</style></defs><g id="Camada_2" data-name="Camada 2"><g id="Camada_1-2" data-name="Camada 1"><rect class="cls-1" x="28" y="19" width="226" height="16"/><circle class="cls-2" cx="254" cy="28" r="25.5"/><path d="M254,5a23,23,0,1,1-23,23A23,23,0,0,1,254,5m0-5a28,28,0,1,0,28,28A28,28,0,0,0,254,0Z"/><circle class="cls-2" cx="28" cy="28" r="25.5"/><path d="M28,5A23,23,0,1,1,5,28,23,23,0,0,1,28,5m0-5A28,28,0,1,0,56,28,28,28,0,0,0,28,0Z"/></g></g></svg>