<svg xmlns="http://www.w3.org/2000/svg" viewBox="0 0 261.49 122.35"><defs><style>.cls-1{fill:#c69c6d;}.cls-2{fill:#649dd4;}.cls-2,.cls-3,.cls-4{stroke:#000;stroke-miterlimit:10;stroke-width:5px;}.cls-3{fill:#d76f75;}.cls-4{fill:#d5e5f3;}.cls-5{fill:#666867;}</style></defs><g id="Camada_2" data-name="Camada 2"><g id="Camada_1-2" data-name="Camada 1"><circle cx="50.73" cy="103.35" r="19"/><circle class="cls-1" cx="50.73" cy="103.35" r="16.08"/><circle cx="198.34" cy="103.35" r="19"/><circle class="cls-1" cx="198.34" cy="103.35" r="16.08"/><path class="cls-2" d="M259,67.54l-.09,3.66q-.33,14.42-.64,28.85a10.61,10.61,0,0,1-10.61,10.61H13.11A10.61,10.61,0,0,1,2.5,100.05V13.12L13.11,2.51q104.66.69,209.34.73h16.08a12.87,12.87,0,0,1,7.3,2.92c3.72,3.25,4.17,8.21,4.39,10.23C251.12,24.87,254.37,42.77,259,67.54Z"/><path class="cls-3" d="M259,67.54l-.09,3.66H2.5V13.12L13.11,2.51q104.66.69,209.34.73h16.08a12.87,12.87,0,0,1,7.3,2.92c3.72,3.25,4.17,8.21,4.39,10.23C251.12,24.87,254.37,42.77,259,67.54Z"/><rect class="cls-4" x="181.11" y="19.43" width="26.84" height="51.59"/><rect class="cls-4" x="154.81" y="19.43" width="26.84" height="51.59"/><rect class="cls-4" x="128.5" y="19.43" width="26.84" height="51.59"/><rect class="cls-4" x="102.19" y="19.43" width="26.84" height="51.59"/><rect class="cls-4" x="74.43" y="19.43" width="26.84" height="51.59"/><rect class="cls-4" x="48.12" y="19.43" width="26.84" height="51.59"/><rect class="cls-4" x="3.48" y="19.43" width="45.17" height="51.59"/><path class="cls-4" d="M250.47,19.43H208.68V70.58h49.1Q254.12,45,250.47,19.43Z"/><circle cx="50.73" cy="103.35" r="19"/><circle class="cls-5" cx="50.73" cy="103.35" r="13.36"/><circle cx="198.34" cy="103.35" r="19"/><circle class="cls-5" cx="198.16" cy="103.35" r="13.36"/></g></g></svg>