<svg xmlns="http://www.w3.org/2000/svg" viewBox="0 0 326.85 152.88"><defs><style>.cls-1{fill:#c69c6d;}.cls-2{fill:#649dd4;}.cls-2,.cls-3,.cls-4{stroke:#000;stroke-miterlimit:10;stroke-width:5px;}.cls-3{fill:#d76f75;}.cls-4{fill:#d5e5f3;}.cls-5{fill:#666867;}</style></defs><g id="Camada_2" data-name="Camada 2"><g id="Camada_1-2" data-name="Camada 1"><circle cx="63.02" cy="129.04" r="23.84"/><circle class="cls-1" cx="63.02" cy="129.04" r="20.17"/><circle cx="248.24" cy="129.04" r="23.84"/><circle class="cls-1" cx="248.24" cy="129.04" r="20.17"/><path class="cls-2" d="M324.34,84.11c0,1.53-.07,3.07-.11,4.59q-.41,18.1-.8,36.2a13.31,13.31,0,0,1-13.32,13.31H15.81A13.31,13.31,0,0,1,2.5,124.9V15.82L15.81,2.51q131.32.87,262.69.91h20.17a16.22,16.22,0,0,1,9.17,3.67c4.66,4.07,5.22,10.31,5.5,12.84C314.48,30.56,318.55,53,324.34,84.11Z"/><path class="cls-3" d="M324.34,84.11c0,1.53-.07,3.07-.11,4.59H2.5V15.82L15.81,2.51q131.32.87,262.69.91h20.17a16.22,16.22,0,0,1,9.17,3.67c4.66,4.07,5.22,10.31,5.5,12.84C314.48,30.56,318.55,53,324.34,84.11Z"/><rect class="cls-4" x="226.62" y="23.74" width="33.68" height="64.73"/><rect class="cls-4" x="193.61" y="23.74" width="33.68" height="64.73"/><rect class="cls-4" x="160.61" y="23.74" width="33.68" height="64.73"/><rect class="cls-4" x="127.6" y="23.74" width="33.68" height="64.73"/><rect class="cls-4" x="92.75" y="23.74" width="33.68" height="64.73"/><rect class="cls-4" x="59.74" y="23.74" width="33.68" height="64.73"/><rect class="cls-4" x="3.73" y="23.74" width="56.69" height="64.73"/><path class="cls-4" d="M313.65,23.74H261.22V87.93h61.6Q318.25,55.83,313.65,23.74Z"/><circle cx="63.02" cy="129.04" r="23.84"/><circle class="cls-5" cx="63.02" cy="129.04" r="16.77"/><circle cx="248.24" cy="129.04" r="23.84"/><circle class="cls-5" cx="248.02" cy="129.04" r="16.77"/></g></g></svg>