<svg xmlns="http://www.w3.org/2000/svg" viewBox="0 0 57 177.83"><defs><style>.cls-1{fill:#4e5052;}.cls-1,.cls-2{stroke:#000;stroke-miterlimit:10;}.cls-2{fill:#4652b2;}.cls-3{fill:#fff;}</style></defs><g id="Camada_2" data-name="Camada 2"><g id="Camada_1-2" data-name="Camada 1"><rect class="cls-1" x="23" y="13" width="11" height="122.5"/><path class="cls-2" d="M56.5,6.57V78.43a6.08,6.08,0,0,1-6.08,6.07H6.57A6.07,6.07,0,0,1,.5,78.43V6.57A6.07,6.07,0,0,1,6.57.5H50.43A6.07,6.07,0,0,1,56.5,6.57Z"/><rect class="cls-3" x="3.92" y="13.07" width="49.14" height="48" rx="8.1"/><path d="M46.57,33.14v6A1.78,1.78,0,0,1,44.84,41H43.32a4,4,0,1,0-8,0H21.26a4,4,0,1,0-8,0H12.15a1.78,1.78,0,0,1-1.73-1.83V28.33a1.78,1.78,0,0,1,1.73-1.83H41.26a4.83,4.83,0,0,1,1.88.72,5.07,5.07,0,0,1,1.2,1.09Q45.47,30.73,46.57,33.14Z"/><circle cx="17.29" cy="40.96" r="3.25"/><circle cx="39.34" cy="40.96" r="3.25"/><rect class="cls-3" x="11.5" y="28.13" width="5.78" height="4.52" rx="2.26"/><rect class="cls-3" x="17.83" y="28.13" width="5.78" height="4.52" rx="2.26"/><rect class="cls-3" x="24.52" y="28.13" width="5.78" height="4.52" rx="2.26"/><rect class="cls-3" x="31.39" y="28.13" width="5.78" height="4.52" rx="2.26"/><path class="cls-3" d="M44,32.56H39.34a.82.82,0,0,1-.81-.82V28.85a.83.83,0,0,1,.23-.58.66.66,0,0,1,.4-.14c.42,0,1.85,0,3.8,0l.54,1.08,1.26,2.53A.82.82,0,0,1,44,32.56Z"/><path class="cls-1" d="M53.08,131.19l-18.55,35L29,176.78c-1.94-3.52-3.86-7-5.8-10.55l-19.23-35Z"/></g></g></svg>