<svg xmlns="http://www.w3.org/2000/svg" viewBox="0 0 377.8 207.82"><defs><style>.cls-1{fill:#fee191;}.cls-1,.cls-2,.cls-3{stroke:#000;stroke-miterlimit:10;stroke-width:3px;}.cls-2{fill:#4e5052;}.cls-3{fill:#4652b2;}.cls-4{fill:#fff;}</style></defs><g id="Camada_2" data-name="Camada 2"><g id="Camada_1-2" data-name="Camada 1"><path class="cls-1" d="M375.94,3.17,355,42.18,334.65,5.64c1.42-1.53,2.62-3.21,4.72-3,3,.22,3.37,4,6.43,4.28A4.36,4.36,0,0,0,349,5.77c2.12-1.66,3.8-4.52,6.42-4.25s3.61,3.55,5.36,5.33a3.41,3.41,0,0,0,2.14,1.09c3.84.36,5.37-6.42,9.64-6.42A4.72,4.72,0,0,1,375.94,3.17Z"/><rect class="cls-2" x="28.54" y="83.82" width="11" height="122.5"/><path class="cls-3" d="M66.58,78.57v83.51a7.06,7.06,0,0,1-7.07,7h-51a7,7,0,0,1-7-7V78.57a7,7,0,0,1,7.05-7h51A7.06,7.06,0,0,1,66.58,78.57Z"/><rect class="cls-4" x="5.48" y="86.13" width="57.11" height="55.78" rx="8.1"/><path d="M58.61,109v8.15a2.42,2.42,0,0,1-2.36,2.48H54.19a5.41,5.41,0,0,0-10.82,0H24.2a5.41,5.41,0,0,0-10.81,0H11.81a2.42,2.42,0,0,1-2.36-2.48V102.47A2.43,2.43,0,0,1,11.81,100H51.39A6.62,6.62,0,0,1,54,101a7.17,7.17,0,0,1,1.63,1.48Z"/><circle cx="18.79" cy="119.64" r="4.42"/><circle cx="48.78" cy="119.64" r="4.42"/><rect class="cls-4" x="10.93" y="102.19" width="7.87" height="6.14" rx="2.26"/><rect class="cls-4" x="19.53" y="102.19" width="7.87" height="6.14" rx="2.26"/><rect class="cls-4" x="28.63" y="102.19" width="7.87" height="6.14" rx="2.26"/><rect class="cls-4" x="37.97" y="102.19" width="7.87" height="6.14" rx="2.26"/><path class="cls-4" d="M55.05,108.21H48.78a1.11,1.11,0,0,1-1.11-1.1v-3.94a1.12,1.12,0,0,1,.33-.78,1,1,0,0,1,.53-.2c.58,0,2.53,0,5.17,0l.73,1.48c.58,1.15,1.15,2.29,1.72,3.44A1.1,1.1,0,0,1,55.05,108.21Z"/></g></g></svg>