<svg xmlns="http://www.w3.org/2000/svg" viewBox="0 0 68.08 180.75"><defs><style>.cls-1{fill:#4e5052;}.cls-1,.cls-2{stroke:#000;stroke-miterlimit:10;stroke-width:3px;}.cls-2{fill:#4652b2;}.cls-3{fill:#fff;}</style></defs><g id="Camada_2" data-name="Camada 2"><g id="Camada_1-2" data-name="Camada 1"><rect class="cls-1" x="28.54" y="13.81" width="11" height="122.5"/><path class="cls-2" d="M66.58,8.55V92.06a7.06,7.06,0,0,1-7.07,7.06h-51a7.05,7.05,0,0,1-7-7.06V8.55a7,7,0,0,1,7.05-7h51A7.06,7.06,0,0,1,66.58,8.55Z"/><rect class="cls-3" x="5.48" y="16.11" width="57.11" height="55.78" rx="8.1"/><path d="M58.61,39v8.15a2.43,2.43,0,0,1-2.36,2.49H54.19a5.41,5.41,0,1,0-10.82,0H24.2a5.41,5.41,0,1,0-10.81,0H11.81a2.43,2.43,0,0,1-2.36-2.49V32.45A2.43,2.43,0,0,1,11.81,30H51.39A6.67,6.67,0,0,1,54,31a6.94,6.94,0,0,1,1.63,1.47Z"/><circle cx="18.79" cy="49.63" r="4.42"/><circle cx="48.78" cy="49.63" r="4.42"/><rect class="cls-3" x="10.93" y="32.18" width="7.87" height="6.14" rx="2.26"/><rect class="cls-3" x="19.53" y="32.18" width="7.87" height="6.14" rx="2.26"/><rect class="cls-3" x="28.63" y="32.18" width="7.87" height="6.14" rx="2.26"/><rect class="cls-3" x="37.97" y="32.18" width="7.87" height="6.14" rx="2.26"/><path class="cls-3" d="M55.05,38.2H48.78a1.11,1.11,0,0,1-1.11-1.1V33.16a1.08,1.08,0,0,1,.33-.78.88.88,0,0,1,.53-.2c.58,0,2.53-.06,5.17,0l.73,1.47C55,34.8,55.58,36,56.15,37.1A1.1,1.1,0,0,1,55.05,38.2Z"/><path class="cls-1" d="M58.62,132,40.07,167l-5.58,10.55c-1.94-3.52-3.86-7-5.8-10.55q-9.6-17.52-19.23-35Z"/></g></g></svg>