<svg xmlns="http://www.w3.org/2000/svg" viewBox="0 0 66.08 135.81"><defs><style>.cls-1{fill:#4e5052;}.cls-1,.cls-2{stroke:#000;stroke-miterlimit:10;}.cls-2{fill:#4652b2;}.cls-3{fill:#fff;}</style></defs><g id="Camada_2" data-name="Camada 2"><g id="Camada_1-2" data-name="Camada 1"><rect class="cls-1" x="27.54" y="12.81" width="11" height="122.5"/><path class="cls-2" d="M65.58,7.55V91.06a7.06,7.06,0,0,1-7.07,7.06h-51a7.05,7.05,0,0,1-7-7.06V7.55A7,7,0,0,1,7.55.5h51A7.06,7.06,0,0,1,65.58,7.55Z"/><rect class="cls-3" x="4.48" y="15.11" width="57.11" height="55.78" rx="8.1"/><path d="M57.61,38v8.15a2.43,2.43,0,0,1-2.36,2.49H53.19a5.41,5.41,0,1,0-10.82,0H23.2a5.41,5.41,0,1,0-10.81,0H10.81a2.43,2.43,0,0,1-2.36-2.49V31.45A2.43,2.43,0,0,1,10.81,29H50.39A6.67,6.67,0,0,1,53,30a6.94,6.94,0,0,1,1.63,1.47Z"/><circle cx="17.79" cy="48.63" r="4.42"/><circle cx="47.78" cy="48.63" r="4.42"/><rect class="cls-3" x="9.93" y="31.18" width="7.87" height="6.14" rx="2.26"/><rect class="cls-3" x="18.53" y="31.18" width="7.87" height="6.14" rx="2.26"/><rect class="cls-3" x="27.63" y="31.18" width="7.87" height="6.14" rx="2.26"/><rect class="cls-3" x="36.97" y="31.18" width="7.87" height="6.14" rx="2.26"/><path class="cls-3" d="M54.05,37.2H47.78a1.11,1.11,0,0,1-1.11-1.1V32.16a1.08,1.08,0,0,1,.33-.78.88.88,0,0,1,.53-.2c.58-.05,2.53-.06,5.17,0l.73,1.47C54,33.8,54.58,35,55.15,36.1A1.1,1.1,0,0,1,54.05,37.2Z"/></g></g></svg>