<svg xmlns="http://www.w3.org/2000/svg" viewBox="0 0 521.81 244.53"><defs><style>.cls-1{fill:#fee191;}.cls-1,.cls-2{stroke:#000;stroke-miterlimit:10;stroke-width:3px;}.cls-2{fill:#b0c5eb;}</style></defs><g id="Camada_2" data-name="Camada 2"><g id="Camada_1-2" data-name="Camada 1"><path class="cls-1" d="M509,25.55a16.69,16.69,0,0,1-9.66.93V14.92a26.5,26.5,0,0,1,3-4.16c4.87-5.63,13.58-11,16.56-8.71C522.49,4.9,519.43,21,509,25.55Z"/><path class="cls-2" d="M40.38,177.62l-.06.14h-.18a29.56,29.56,0,0,1-4.37-.19l-.31,0a32.59,32.59,0,0,1-18.91-8.74,33.26,33.26,0,0,1-10-21.89q-.5-16.92-1-33.85c-3.88-3.77-4.38-5.3-4-6,1.1-1.83,10.17,1.06,16.92,5a43.5,43.5,0,0,1,8.61,6.08A24.5,24.5,0,0,1,30.48,122c4,5.74,4,11.12,3.95,18.4a109.56,109.56,0,0,0,1,18.43,87.42,87.42,0,0,0,2.31,10.77c0,.2.11.4.16.6a1.77,1.77,0,0,0,.06.17C38.78,173.21,39.63,175.64,40.38,177.62Z"/><path class="cls-2" d="M75.16,113.06q-.51,16.92-1,33.85a33.49,33.49,0,0,1-1.83,9.15,31.94,31.94,0,0,1-8.13,12.74,32.55,32.55,0,0,1-17.8,8.6c-.76.11-1.46.2-2.11.26a31.06,31.06,0,0,1-3.69.11h-.17a.59.59,0,0,1-.06-.14c.75-2,1.6-4.43,2.41-7.27a.11.11,0,0,1,0-.06c.08-.26.16-.52.22-.79h0l.15-.59c.06-.2.11-.4.16-.6.1-.4.21-.82.31-1.23s.23-.92.34-1.39l.27-1.2q.59-2.67,1-5.64a107.14,107.14,0,0,0,1-18.09c0-1.69,0-3.28,0-4.8.12-5.15.81-9.43,4-13.94a25.77,25.77,0,0,1,3.4-3.93,43.37,43.37,0,0,1,8.54-6c6.76-3.92,15.83-6.81,16.92-5C79.54,107.76,79,109.29,75.16,113.06Z"/><path class="cls-2" d="M44.3,178.43v64.45c-2.85-.26-5.69.26-8.53,0V178.36c.87.1,1.81.17,2.82.19.65,0,1.26,0,1.85,0A28.36,28.36,0,0,0,44.3,178.43Z"/><path class="cls-2" d="M54,216.55a16.69,16.69,0,0,1-9.66.93V205.92a26.5,26.5,0,0,1,3-4.16c4.87-5.63,13.58-11,16.56-8.71C67.49,195.9,64.43,212,54,216.55Z"/><path class="cls-2" d="M35.77,206.19v11.26a16.71,16.71,0,0,1-9.82-.9c-10.47-4.56-13.53-20.65-9.87-23.5,3-2.32,11.69,3.08,16.56,8.71A27.51,27.51,0,0,1,35.77,206.19Z"/><path class="cls-2" d="M53.68,118.09a25.77,25.77,0,0,0-3.4,3.93c-3.14,4.51-3.83,8.79-4,13.94,0,1.52,0,3.11,0,4.8a138.13,138.13,0,0,1-1,18.09c-.89,6.84-1.49,9.24-2.5,11.44a27.38,27.38,0,0,1-2.87,4.82,47.91,47.91,0,0,1-2-5,62.43,62.43,0,0,1-2.47-11.26c-.9-5.92-1.14-6.8-1-18.43.07-7.28,0-12.66-3.95-18.4a24.5,24.5,0,0,0-3.34-3.87q6.64-7,13.3-14Z"/></g></g></svg>