<svg xmlns="http://www.w3.org/2000/svg" viewBox="0 0 80.75 171.02"><defs><style>.cls-1{fill:#b0d8a4;stroke:#000;stroke-miterlimit:10;stroke-width:3px;}</style></defs><g id="Camada_2" data-name="Camada 2"><g id="Camada_1-2" data-name="Camada 1"><path class="cls-1" d="M40.38,75.69l-.06.14h-.18a29.15,29.15,0,0,1-4.37-.18l-.31,0a32.65,32.65,0,0,1-18.91-8.74A33.25,33.25,0,0,1,6.59,45q-.5-16.92-1-33.85c-3.88-3.76-4.38-5.3-4-6,1.1-1.83,10.17,1.07,16.92,5a43.92,43.92,0,0,1,8.61,6.08,24.58,24.58,0,0,1,3.34,3.88c4,5.74,4,11.12,3.95,18.39a109.56,109.56,0,0,0,1,18.43,87,87,0,0,0,2.31,10.77c0,.2.11.41.16.6a1.15,1.15,0,0,0,.06.17C38.78,71.28,39.63,73.72,40.38,75.69Z"/><path class="cls-1" d="M75.16,11.13q-.51,16.94-1,33.85a33.49,33.49,0,0,1-1.83,9.15,32,32,0,0,1-8.13,12.75,32.59,32.59,0,0,1-17.8,8.59c-.76.12-1.46.2-2.11.26a31.06,31.06,0,0,1-3.69.11h-.17a.45.45,0,0,1-.06-.14c.75-2,1.6-4.43,2.41-7.27a.13.13,0,0,1,0-.06c.08-.26.16-.52.22-.78h0l.15-.59c.06-.21.11-.41.16-.61.1-.4.21-.81.31-1.23s.23-.92.34-1.39l.27-1.2q.59-2.67,1-5.64a107.14,107.14,0,0,0,1-18.09c0-1.69,0-3.28,0-4.8.12-5.15.81-9.43,4-13.93a24.84,24.84,0,0,1,3.4-3.93,43.46,43.46,0,0,1,8.54-6c6.76-3.91,15.83-6.81,16.92-5C79.54,5.83,79,7.37,75.16,11.13Z"/><path class="cls-1" d="M44.3,76.51v64.84c-1.27-1.29-1.93-3.67-3.88-3.86s-3.12,1.87-4.65,3.07V76.43c.87.1,1.81.17,2.82.19.65,0,1.26,0,1.85,0A29.59,29.59,0,0,0,44.3,76.51Z"/><path class="cls-1" d="M54,114.63a16.69,16.69,0,0,1-9.66.93V104a26.57,26.57,0,0,1,3-4.17c4.87-5.63,13.58-11,16.56-8.71C67.49,94,64.43,110.07,54,114.63Z"/><path class="cls-1" d="M35.77,104.27v11.26a16.71,16.71,0,0,1-9.82-.9C15.48,110.07,12.42,94,16.08,91.12c3-2.31,11.69,3.08,16.56,8.71A27.14,27.14,0,0,1,35.77,104.27Z"/><path class="cls-1" d="M53.68,16.17a24.84,24.84,0,0,0-3.4,3.93c-3.14,4.5-3.83,8.78-4,13.93,0,1.52,0,3.11,0,4.8a107.14,107.14,0,0,1-1,18.09c-.33,2.15-.56,3.67-1,5.64-.18.74-.6,2.35-1.46,5.8v.06a9.71,9.71,0,0,1-2.86,4.76c-.65-1.57-1.3-3.15-1.94-4.72a79.28,79.28,0,0,1-2.53-11.54c-.8-5.6-1.13-7.14-1-18.43.07-7.27,0-12.65-3.95-18.39a24.58,24.58,0,0,0-3.34-3.88c4.43-4.67,8.85-9.37,13.3-14Q47.07,9.17,53.68,16.17Z"/><path class="cls-1" d="M61,128.87,40,167.89,19.67,131.35c1.43-1.53,2.62-3.22,4.72-3.06,3,.23,3.38,4,6.43,4.29a4.4,4.4,0,0,0,3.21-1.1c2.12-1.66,3.8-4.52,6.43-4.26s3.61,3.56,5.35,5.34A3.49,3.49,0,0,0,48,133.65c3.83.35,5.36-6.43,9.63-6.43A4.76,4.76,0,0,1,61,128.87Z"/></g></g></svg>