<svg xmlns="http://www.w3.org/2000/svg" viewBox="0 0 78.75 167.48"><defs><style>.cls-1{fill:#e84258;stroke:#000;stroke-miterlimit:10;}</style></defs><g id="Camada_2" data-name="Camada 2"><g id="Camada_1-2" data-name="Camada 1"><path class="cls-1" d="M39.38,74.24a1.47,1.47,0,0,0-.06.14h-.18a28.19,28.19,0,0,1-4.37-.19l-.31,0a32.63,32.63,0,0,1-18.91-8.73,33.3,33.3,0,0,1-10-21.9q-.5-16.92-1-33.85c-3.88-3.77-4.38-5.3-4-6,1.1-1.83,10.17,1.06,16.92,5a43.5,43.5,0,0,1,8.61,6.08,24.58,24.58,0,0,1,3.34,3.88c4,5.73,4,11.11,3.95,18.39a109.56,109.56,0,0,0,1,18.43,87.42,87.42,0,0,0,2.31,10.77c0,.2.11.4.16.6A1.77,1.77,0,0,0,37,67C37.78,69.83,38.63,72.26,39.38,74.24Z"/><path class="cls-1" d="M74.16,9.68q-.51,16.92-1,33.85a33.49,33.49,0,0,1-1.83,9.15,32,32,0,0,1-8.13,12.75A32.59,32.59,0,0,1,45.41,74c-.76.11-1.46.2-2.11.26a31.06,31.06,0,0,1-3.69.11h-.17a.59.59,0,0,1-.06-.14c.75-2,1.6-4.43,2.41-7.27a.13.13,0,0,1,0-.06c.08-.26.16-.52.22-.79h0c0-.19.1-.38.15-.59s.11-.4.16-.6c.1-.4.21-.82.31-1.23s.23-.92.34-1.39l.27-1.2q.59-2.67,1-5.64a107.14,107.14,0,0,0,1-18.09c0-1.69,0-3.28,0-4.8.12-5.15.81-9.43,4-13.93a25.39,25.39,0,0,1,3.4-3.94,43.37,43.37,0,0,1,8.54-6c6.76-3.92,15.83-6.81,16.92-5C78.54,4.38,78,5.91,74.16,9.68Z"/><path class="cls-1" d="M43.3,75.06v64.83c-1.27-1.28-1.93-3.66-3.88-3.86s-3.12,1.88-4.65,3.08V75c.87.1,1.81.17,2.82.19.65,0,1.26,0,1.85,0A29.59,29.59,0,0,0,43.3,75.06Z"/><path class="cls-1" d="M53,113.17a16.6,16.6,0,0,1-9.66.93V102.54a27,27,0,0,1,3-4.16c4.87-5.63,13.58-11,16.56-8.71C66.49,92.53,63.43,108.62,53,113.17Z"/><path class="cls-1" d="M34.77,102.81v11.26a16.55,16.55,0,0,1-9.82-.9c-10.47-4.55-13.53-20.64-9.87-23.5,3-2.32,11.69,3.08,16.56,8.71A27.51,27.51,0,0,1,34.77,102.81Z"/><path class="cls-1" d="M52.68,14.71a25.39,25.39,0,0,0-3.4,3.94c-3.14,4.5-3.83,8.78-4,13.93,0,1.52,0,3.11,0,4.8a107.14,107.14,0,0,1-1,18.09q-.45,3-1,5.64L43,62.31c-.11.47-.22.93-.34,1.39s-.21.83-.31,1.23c-.05.2-.1.4-.16.6s-.11.4-.16.59-.14.53-.22.79a.13.13,0,0,0,0,.06c-.81,2.84-1.66,5.29-2.41,7.27-.75-2-1.6-4.41-2.39-7.23a1.77,1.77,0,0,1-.06-.17c0-.2-.11-.4-.16-.6a87.42,87.42,0,0,1-2.31-10.77,109.56,109.56,0,0,1-1-18.43c.07-7.28,0-12.66-3.95-18.39a24.58,24.58,0,0,0-3.34-3.88q6.64-7,13.3-14Z"/><path class="cls-1" d="M60,127.42,39,166.44,18.67,129.89c1.43-1.53,2.62-3.21,4.72-3,3,.23,3.38,4,6.43,4.29A4.41,4.41,0,0,0,33,130c2.12-1.66,3.8-4.52,6.43-4.25s3.61,3.56,5.35,5.33A3.5,3.5,0,0,0,47,132.2c3.83.35,5.36-6.43,9.63-6.43A4.76,4.76,0,0,1,60,127.42Z"/></g></g></svg>