<svg xmlns="http://www.w3.org/2000/svg" viewBox="0 0 98 104.5"><defs><style>.cls-1{stroke:#fff;stroke-miterlimit:10;}</style></defs><g id="Camada_2" data-name="Camada 2"><g id="Camada_1-2" data-name="Camada 1"><rect x="36" y="65" width="12" height="39" rx="2.74"/><path d="M71,32V67H64V40H62V67H36V40H34V67H27V32a9.25,9.25,0,0,1,2-4,9.44,9.44,0,0,1,5-3h7.45a11,11,0,0,0,15.1,0H64a9.44,9.44,0,0,1,5,3A9.25,9.25,0,0,1,71,32Z"/><rect x="50" y="65" width="12" height="39" rx="1.7"/><circle cx="49" cy="17" r="8"/><circle cx="49" cy="17" r="9"/><rect x="63" y="57" width="12" height="39" rx="2.74"/><path d="M98,24V59H91V32H89V59H63V32H61V59H54V24a9.25,9.25,0,0,1,2-4,9.44,9.44,0,0,1,5-3h7.45a11,11,0,0,0,15.1,0H91a9.44,9.44,0,0,1,5,3A9.25,9.25,0,0,1,98,24Z"/><rect x="77" y="57" width="12" height="39" rx="1.7"/><circle cx="76" cy="9" r="8"/><circle cx="76" cy="9" r="9"/><rect x="63" y="57" width="12" height="39" rx="2.74"/><path d="M98,24V59H91V32H89V59H63V32H61V59H54V24a9.25,9.25,0,0,1,2-4,9.44,9.44,0,0,1,5-3h7.45a11,11,0,0,0,15.1,0H91a9.44,9.44,0,0,1,5,3A9.25,9.25,0,0,1,98,24Z"/><rect x="77" y="57" width="12" height="39" rx="1.7"/><circle cx="76" cy="9" r="8"/><circle cx="76" cy="9" r="9"/><rect x="9" y="61" width="12" height="39" rx="2.74"/><path d="M44,28V63H37V36H35V63H9V36H7V63H0V28a9.25,9.25,0,0,1,2-4,9.44,9.44,0,0,1,5-3h7.45a11,11,0,0,0,15.1,0H37a9.44,9.44,0,0,1,5,3A9.25,9.25,0,0,1,44,28Z"/><circle cx="22" cy="13" r="8"/><circle cx="22" cy="13" r="9"/><rect x="9" y="61" width="12" height="39" rx="2.74"/><path d="M44,28V63H37V36H35V63H9V36H7V63H0V28a9.25,9.25,0,0,1,2-4,9.44,9.44,0,0,1,5-3h7.45a11,11,0,0,0,15.1,0H37a9.44,9.44,0,0,1,5,3A9.25,9.25,0,0,1,44,28Z"/><rect x="23" y="61" width="12" height="39" rx="1.7"/><circle cx="22" cy="13" r="8"/><circle cx="22" cy="13" r="9"/><rect x="9" y="61" width="12" height="39" rx="2.74"/><path d="M44,28V63H37V36H35V63H9V36H7V63H0V28a9.25,9.25,0,0,1,2-4,9.44,9.44,0,0,1,5-3h7.45a11,11,0,0,0,15.1,0H37a9.44,9.44,0,0,1,5,3A9.25,9.25,0,0,1,44,28Z"/><rect x="23" y="61" width="12" height="39" rx="1.7"/><circle cx="22" cy="13" r="8"/><circle cx="22" cy="13" r="9"/><rect x="36" y="65" width="12" height="39" rx="2.74"/><path d="M71,32V67H64V40H62V67H36V40H34V67H27V32a9.25,9.25,0,0,1,2-4,9.44,9.44,0,0,1,5-3h7.45a11,11,0,0,0,15.1,0H64a9.44,9.44,0,0,1,5,3A9.25,9.25,0,0,1,71,32Z"/><rect x="50" y="65" width="12" height="39" rx="1.7"/><circle cx="49" cy="17" r="8"/><circle cx="49" cy="17" r="9"/><circle class="cls-1" cx="49" cy="17" r="8"/><rect class="cls-1" x="36" y="65" width="12" height="39" rx="2.74"/><rect class="cls-1" x="50" y="65" width="12" height="39" rx="1.7"/><path class="cls-1" d="M71,32V67H64V40H62V67H36V40H34V67H27V32a9.25,9.25,0,0,1,2-4,9.44,9.44,0,0,1,5-3h7.45a11,11,0,0,0,15.1,0H64a9.44,9.44,0,0,1,5,3A9.25,9.25,0,0,1,71,32Z"/><circle class="cls-1" cx="49" cy="17" r="9"/></g></g></svg>