<svg xmlns="http://www.w3.org/2000/svg" viewBox="0 0 71.5 104.5"><defs><style>.cls-1{stroke:#fff;stroke-miterlimit:10;}</style></defs><g id="Camada_2" data-name="Camada 2"><g id="Camada_1-2" data-name="Camada 1"><rect x="9.5" y="65" width="12" height="39" rx="2.74"/><path d="M44.5,32V67h-7V40h-2V67H9.5V40h-2V67H.5V32a9.25,9.25,0,0,1,2-4,9.44,9.44,0,0,1,5-3H15a11,11,0,0,0,15.1,0H37.5a9.44,9.44,0,0,1,5,3A9.25,9.25,0,0,1,44.5,32Z"/><rect x="23.5" y="65" width="12" height="39" rx="1.7"/><circle cx="22.5" cy="17" r="8"/><circle cx="22.5" cy="17" r="9"/><rect x="36.5" y="57" width="12" height="39" rx="2.74"/><path d="M71.5,24V59h-7V32h-2V59h-26V32h-2V59h-7V24a9.25,9.25,0,0,1,2-4,9.44,9.44,0,0,1,5-3H42a11,11,0,0,0,15.1,0H64.5a9.44,9.44,0,0,1,5,3A9.25,9.25,0,0,1,71.5,24Z"/><rect x="50.5" y="57" width="12" height="39" rx="1.7"/><circle cx="49.5" cy="9" r="8"/><circle cx="49.5" cy="9" r="9"/><rect x="36.5" y="57" width="12" height="39" rx="2.74"/><path d="M71.5,24V59h-7V32h-2V59h-26V32h-2V59h-7V24a9.25,9.25,0,0,1,2-4,9.44,9.44,0,0,1,5-3H42a11,11,0,0,0,15.1,0H64.5a9.44,9.44,0,0,1,5,3A9.25,9.25,0,0,1,71.5,24Z"/><rect x="50.5" y="57" width="12" height="39" rx="1.7"/><circle cx="49.5" cy="9" r="8"/><circle cx="49.5" cy="9" r="9"/><rect class="cls-1" x="9.5" y="65" width="12" height="39" rx="2.74"/><rect class="cls-1" x="23.5" y="65" width="12" height="39" rx="1.7"/><path class="cls-1" d="M44.5,32V67h-7V40h-2V67H9.5V40h-2V67H.5V32a9.25,9.25,0,0,1,2-4,9.44,9.44,0,0,1,5-3H15a11,11,0,0,0,15.1,0H37.5a9.44,9.44,0,0,1,5,3A9.25,9.25,0,0,1,44.5,32Z"/><circle class="cls-1" cx="22.5" cy="17" r="8"/><circle class="cls-1" cx="22.5" cy="17" r="9"/></g></g></svg>