<svg xmlns="http://www.w3.org/2000/svg" viewBox="0 0 102.58 114"><defs><style>.cls-1{fill:#fff;}</style></defs><g id="Camada_2" data-name="Camada 2"><g id="Camada_1-2" data-name="Camada 1"><rect x="38.29" y="69" width="12" height="39" rx="2.74"/><path d="M73.29,36V71h-7V44h-2V71h-26V44h-2V71h-7V36a9.25,9.25,0,0,1,2-4,9.44,9.44,0,0,1,5-3h7.45a11,11,0,0,0,15.1,0h7.45a9.44,9.44,0,0,1,5,3A9.25,9.25,0,0,1,73.29,36Z"/><rect x="52.29" y="69" width="12" height="39" rx="1.7"/><circle cx="51.29" cy="21" r="8"/><circle cx="51.29" cy="21" r="9"/><rect x="65.29" y="61" width="12" height="39" rx="2.74"/><path d="M100.29,28V63h-7V36h-2V63h-26V36h-2V63h-7V28a9.25,9.25,0,0,1,2-4,9.44,9.44,0,0,1,5-3h7.45a11,11,0,0,0,15.1,0h7.45a9.44,9.44,0,0,1,5,3A9.25,9.25,0,0,1,100.29,28Z"/><rect x="79.29" y="61" width="12" height="39" rx="1.7"/><circle cx="78.29" cy="13" r="8"/><circle cx="78.29" cy="13" r="9"/><rect class="cls-1" x="63.94" y="62.94" width="13.25" height="43.06" rx="2.74"/><path class="cls-1" d="M102.58,26.5V65.15H94.85V35.33h-2.2V65.15H63.94V35.33H61.73V65.15H54V26.5a10.2,10.2,0,0,1,2.21-4.42,10.42,10.42,0,0,1,5.52-3.31H70a12.15,12.15,0,0,0,16.67,0h8.22a10.47,10.47,0,0,1,5.53,3.31A10.27,10.27,0,0,1,102.58,26.5Z"/><rect class="cls-1" x="79.4" y="62.94" width="13.25" height="43.06" rx="1.7"/><circle class="cls-1" cx="78.29" cy="9.94" r="8.83"/><circle class="cls-1" cx="78.29" cy="9.94" r="9.94"/><rect x="65.29" y="61" width="12" height="39" rx="2.74"/><path d="M100.29,28V63h-7V36h-2V63h-26V36h-2V63h-7V28a9.25,9.25,0,0,1,2-4,9.44,9.44,0,0,1,5-3h7.45a11,11,0,0,0,15.1,0h7.45a9.44,9.44,0,0,1,5,3A9.25,9.25,0,0,1,100.29,28Z"/><rect x="79.29" y="61" width="12" height="39" rx="1.7"/><circle cx="78.29" cy="13" r="8"/><circle cx="78.29" cy="13" r="9"/><rect x="11.29" y="65" width="12" height="39" rx="2.74"/><path d="M46.29,32V67h-7V40h-2V67h-26V40h-2V67h-7V32a9.25,9.25,0,0,1,2-4,9.44,9.44,0,0,1,5-3h7.45a11,11,0,0,0,15.1,0h7.45a9.44,9.44,0,0,1,5,3A9.25,9.25,0,0,1,46.29,32Z"/><circle cx="24.29" cy="17" r="8"/><circle cx="24.29" cy="17" r="9"/><rect class="cls-1" x="9.94" y="66.94" width="13.25" height="43.06" rx="2.74"/><path class="cls-1" d="M48.58,30.5V69.15H40.85V39.33h-2.2V69.15H9.94V39.33H7.73V69.15H0V30.5a10.2,10.2,0,0,1,2.21-4.42,10.42,10.42,0,0,1,5.52-3.31H16a12.15,12.15,0,0,0,16.67,0h8.22a10.47,10.47,0,0,1,5.53,3.31A10.27,10.27,0,0,1,48.58,30.5Z"/><rect class="cls-1" x="25.4" y="66.94" width="13.25" height="43.06" rx="1.7"/><circle class="cls-1" cx="24.29" cy="13.94" r="8.83"/><circle class="cls-1" cx="24.29" cy="13.94" r="9.94"/><rect x="11.29" y="65" width="12" height="39" rx="2.74"/><path d="M46.29,32V67h-7V40h-2V67h-26V40h-2V67h-7V32a9.25,9.25,0,0,1,2-4,9.44,9.44,0,0,1,5-3h7.45a11,11,0,0,0,15.1,0h7.45a9.44,9.44,0,0,1,5,3A9.25,9.25,0,0,1,46.29,32Z"/><rect x="25.29" y="65" width="12" height="39" rx="1.7"/><circle cx="24.29" cy="17" r="8"/><circle cx="24.29" cy="17" r="9"/><rect x="11.29" y="65" width="12" height="39" rx="2.74"/><path d="M46.29,32V67h-7V40h-2V67h-26V40h-2V67h-7V32a9.25,9.25,0,0,1,2-4,9.44,9.44,0,0,1,5-3h7.45a11,11,0,0,0,15.1,0h7.45a9.44,9.44,0,0,1,5,3A9.25,9.25,0,0,1,46.29,32Z"/><rect x="25.29" y="65" width="12" height="39" rx="1.7"/><circle cx="24.29" cy="17" r="8"/><circle cx="24.29" cy="17" r="9"/><rect class="cls-1" x="36.94" y="70.94" width="13.25" height="43.06" rx="2.74"/><path class="cls-1" d="M76.29,34.05V73.82h-8V43.14H66.06V73.82H36.52V43.14H34.25V73.82h-8V34.05a10.54,10.54,0,0,1,2.27-4.55,10.8,10.8,0,0,1,5.69-3.41h8.46a12.5,12.5,0,0,0,17.16,0h8.47A10.78,10.78,0,0,1,74,29.5,10.43,10.43,0,0,1,76.29,34.05Z"/><path class="cls-1" d="M76.29,34.05V73.82h-8V43.14H66.06V73.82H36.52V43.14H34.25V73.82h-8V34.05a10.54,10.54,0,0,1,2.27-4.55,10.8,10.8,0,0,1,5.69-3.41h8.46a12.5,12.5,0,0,0,17.16,0h8.47A10.78,10.78,0,0,1,74,29.5,10.43,10.43,0,0,1,76.29,34.05Z"/><rect class="cls-1" x="52.4" y="70.94" width="13.25" height="43.06" rx="1.7"/><circle class="cls-1" cx="51.29" cy="17.94" r="8.83"/><circle class="cls-1" cx="51.29" cy="17.94" r="9.94"/><rect x="38.29" y="69" width="12" height="39" rx="2.74"/><path d="M73.29,36V71h-7V44h-2V71h-26V44h-2V71h-7V36a9.25,9.25,0,0,1,2-4,9.44,9.44,0,0,1,5-3h7.45a11,11,0,0,0,15.1,0h7.45a9.44,9.44,0,0,1,5,3A9.25,9.25,0,0,1,73.29,36Z"/><rect x="52.29" y="69" width="12" height="39" rx="1.7"/><circle cx="51.29" cy="21" r="8"/><circle cx="51.29" cy="21" r="9"/><rect x="38.29" y="69" width="12" height="39" rx="2.74"/><path d="M73.29,36V71h-7V44h-2V71h-26V44h-2V71h-7V36a9.25,9.25,0,0,1,2-4,9.44,9.44,0,0,1,5-3h7.45a11,11,0,0,0,15.1,0h7.45a9.44,9.44,0,0,1,5,3A9.25,9.25,0,0,1,73.29,36Z"/><rect x="52.29" y="69" width="12" height="39" rx="1.7"/><circle cx="51.29" cy="21" r="8"/><circle cx="51.29" cy="21" r="9"/></g></g></svg>