<svg xmlns="http://www.w3.org/2000/svg" viewBox="0 0 76.39 114"><defs><style>.cls-1{fill:#fff;}</style></defs><g id="Camada_2" data-name="Camada 2"><g id="Camada_1-2" data-name="Camada 1"><rect x="12.1" y="69" width="12" height="39" rx="2.74"/><path d="M47.1,36V71h-7V44h-2V71h-26V44h-2V71h-7V36a9.25,9.25,0,0,1,2-4,9.44,9.44,0,0,1,5-3h7.45a11,11,0,0,0,15.1,0H40.1a9.44,9.44,0,0,1,5,3A9.25,9.25,0,0,1,47.1,36Z"/><rect x="26.1" y="69" width="12" height="39" rx="1.7"/><circle cx="25.1" cy="21" r="8"/><circle cx="25.1" cy="21" r="9"/><rect x="39.1" y="61" width="12" height="39" rx="2.74"/><path d="M74.1,28V63h-7V36h-2V63h-26V36h-2V63h-7V28a9.25,9.25,0,0,1,2-4,9.44,9.44,0,0,1,5-3h7.45a11,11,0,0,0,15.1,0H67.1a9.44,9.44,0,0,1,5,3A9.25,9.25,0,0,1,74.1,28Z"/><rect x="53.1" y="61" width="12" height="39" rx="1.7"/><circle cx="52.1" cy="13" r="8"/><circle cx="52.1" cy="13" r="9"/><rect class="cls-1" x="37.75" y="62.94" width="13.25" height="43.06" rx="2.74"/><path class="cls-1" d="M76.39,26.5V65.15H68.66V35.33H66.45V65.15H37.75V35.33H35.54V65.15H27.81V26.5A10.2,10.2,0,0,1,30,22.08a10.42,10.42,0,0,1,5.52-3.31h8.22a12.16,12.16,0,0,0,16.68,0h8.22a10.42,10.42,0,0,1,5.52,3.31A10.2,10.2,0,0,1,76.39,26.5Z"/><rect class="cls-1" x="53.2" y="62.94" width="13.25" height="43.06" rx="1.7"/><circle class="cls-1" cx="52.1" cy="9.94" r="8.83"/><circle class="cls-1" cx="52.1" cy="9.94" r="9.94"/><rect x="39.1" y="61" width="12" height="39" rx="2.74"/><path d="M74.1,28V63h-7V36h-2V63h-26V36h-2V63h-7V28a9.25,9.25,0,0,1,2-4,9.44,9.44,0,0,1,5-3h7.45a11,11,0,0,0,15.1,0H67.1a9.44,9.44,0,0,1,5,3A9.25,9.25,0,0,1,74.1,28Z"/><rect x="53.1" y="61" width="12" height="39" rx="1.7"/><circle cx="52.1" cy="13" r="8"/><circle cx="52.1" cy="13" r="9"/><rect class="cls-1" x="10.75" y="70.94" width="13.25" height="43.06" rx="2.74"/><path class="cls-1" d="M50.2,34V73.92h-8V43.11H39.93V73.92H10.27V43.11H8V73.92H0V34a10.64,10.64,0,0,1,2.28-4.57A10.8,10.8,0,0,1,8,26h8.5a12.55,12.55,0,0,0,17.22,0h8.5a10.8,10.8,0,0,1,5.71,3.42A10.64,10.64,0,0,1,50.2,34Z"/><rect class="cls-1" x="26.2" y="70.94" width="13.25" height="43.06" rx="1.7"/><circle class="cls-1" cx="25.1" cy="17.94" r="8.83"/><circle class="cls-1" cx="25.1" cy="17.94" r="9.94"/><rect x="12.1" y="69" width="12" height="39" rx="2.74"/><path d="M47.1,36V71h-7V44h-2V71h-26V44h-2V71h-7V36a9.25,9.25,0,0,1,2-4,9.44,9.44,0,0,1,5-3h7.45a11,11,0,0,0,15.1,0H40.1a9.44,9.44,0,0,1,5,3A9.25,9.25,0,0,1,47.1,36Z"/><rect x="26.1" y="69" width="12" height="39" rx="1.7"/><circle cx="25.1" cy="21" r="8"/><circle cx="25.1" cy="21" r="9"/></g></g></svg>