<svg xmlns="http://www.w3.org/2000/svg" viewBox="0 0 142 96"><defs><style>.cls-1{opacity:0;}</style></defs><g id="Camada_2" data-name="Camada 2"><g id="Camada_1-2" data-name="Camada 1"><rect x="9" y="57" width="12" height="39" rx="2.74"/><path d="M44,24V59H37V32H35V59H9V32H7V59H0V24a9.25,9.25,0,0,1,2-4,9.44,9.44,0,0,1,5-3h7.45a11,11,0,0,0,15.1,0H37a9.44,9.44,0,0,1,5,3A9.25,9.25,0,0,1,44,24Z"/><rect x="23" y="57" width="12" height="39" rx="1.7"/><circle cx="22" cy="9" r="8"/><circle cx="22" cy="9" r="9"/><rect x="58" y="57" width="12" height="39" rx="2.74"/><path d="M93,24V59H86V32H84V59H58V32H56V59H49V24a9.25,9.25,0,0,1,2-4,9.44,9.44,0,0,1,5-3h7.45a11,11,0,0,0,15.1,0H86a9.44,9.44,0,0,1,5,3A9.25,9.25,0,0,1,93,24Z"/><rect x="72" y="57" width="12" height="39" rx="1.7"/><circle cx="71" cy="9" r="8"/><circle cx="71" cy="9" r="9"/><g class="cls-1"><rect x="107" y="57" width="12" height="39" rx="2.74"/><path d="M142,24V59h-7V32h-2V59H107V32h-2V59H98V24a9.25,9.25,0,0,1,2-4,9.44,9.44,0,0,1,5-3h7.45a11,11,0,0,0,15.1,0H135a9.44,9.44,0,0,1,5,3A9.25,9.25,0,0,1,142,24Z"/><rect x="121" y="57" width="12" height="39" rx="1.7"/><circle cx="120" cy="9" r="8"/><circle cx="120" cy="9" r="9"/></g></g></g></svg>